<?xml version="1.0" standalone="no"?>
<!DOCTYPE svg PUBLIC "-//W3C//DTD SVG 20010904//EN"
 "http://www.w3.org/TR/2001/REC-SVG-20010904/DTD/svg10.dtd">
<svg version="1.0" xmlns="http://www.w3.org/2000/svg"
 width="460.000000pt" height="460.000000pt" viewBox="0 0 460.000000 460.000000"
 preserveAspectRatio="xMidYMid meet">
<metadata>
Created by potrace 1.11, written by Peter Selinger 2001-2013
</metadata>
<g transform="translate(0.000000,460.000000) scale(0.100000,-0.100000)"
fill="#000000" stroke="none">
<path d="M2237 3804 c-2 -2 -61 -9 -131 -14 -70 -5 -133 -13 -139 -18 -7 -4
-32 -14 -57 -21 -25 -7 -54 -22 -65 -35 -11 -12 -52 -44 -91 -69 -39 -26 -84
-64 -100 -84 -43 -56 -81 -117 -89 -144 -4 -13 -25 -61 -46 -106 -21 -46 -42
-99 -48 -118 -10 -36 -4 -116 10 -125 8 -5 18 -56 43 -218 7 -46 18 -88 24
-94 7 -7 12 -20 12 -30 0 -26 25 -22 44 6 8 14 28 31 43 38 22 11 33 29 55 93
15 44 27 94 27 111 1 17 10 57 22 90 11 32 26 80 34 106 15 55 21 61 98 112
51 34 76 42 210 68 122 23 172 29 253 26 93 -3 104 -6 144 -33 24 -17 50 -34
59 -40 16 -10 55 -41 111 -86 22 -19 35 -42 46 -84 8 -31 12 -65 8 -74 -4 -9
-6 -20 -5 -25 1 -4 -1 -17 -4 -27 -6 -19 -8 -18 -37 6 -16 14 -35 25 -41 25
-21 0 -167 -63 -167 -72 0 -16 32 -21 66 -10 20 6 34 6 34 1 0 -6 8 -5 19 1
29 15 69 12 90 -7 36 -33 50 -43 75 -54 14 -7 27 -18 30 -25 6 -16 -22 -21
-169 -29 -60 -3 -137 -8 -170 -11 -44 -4 -56 -2 -45 5 23 17 3 13 -33 -6 -18
-9 -57 -22 -87 -29 -51 -11 -52 -12 -18 -13 31 -1 36 -4 33 -21 -2 -11 2 -20
8 -21 7 0 -1 -5 -16 -9 -16 -5 -34 -7 -40 -6 -7 1 -9 1 -4 -1 4 -3 7 -11 7
-19 0 -12 4 -12 21 -3 31 16 69 -16 92 -75 9 -26 24 -54 32 -63 8 -8 15 -18
15 -23 0 -4 9 -6 19 -3 11 3 27 -3 39 -15 18 -18 19 -18 31 -1 15 26 15 26
-24 32 -19 3 -43 13 -52 23 -26 26 -45 67 -34 73 5 4 5 28 0 61 -9 52 -8 56
17 78 14 12 38 22 53 22 16 0 44 3 62 6 28 6 32 4 22 -7 -7 -7 -13 -27 -13
-45 0 -36 11 -43 59 -36 31 4 33 7 28 36 -4 25 -1 35 14 44 25 16 30 15 23 -3
-4 -8 -1 -15 5 -15 17 0 13 -28 -6 -39 -16 -9 -16 -10 -2 -11 23 0 109 -68
109 -85 0 -8 4 -15 9 -15 14 0 20 42 11 80 -4 19 -8 27 -9 18 -1 -10 -8 -18
-16 -18 -8 0 -15 8 -15 18 0 9 -7 26 -15 36 -25 33 -19 46 18 39 51 -9 57 -19
57 -96 0 -108 -12 -131 -79 -152 -31 -10 -90 -22 -131 -26 l-75 -7 95 2 c72 2
107 8 145 25 57 25 65 34 65 78 0 47 17 49 25 3 13 -75 25 -40 25 69 0 97 2
109 17 107 23 -1 41 54 55 164 22 175 23 221 4 313 -12 60 -25 91 -58 139 -24
33 -52 78 -63 99 -22 41 -183 171 -245 197 -19 7 -42 20 -50 27 -27 23 -88 36
-184 40 -51 2 -96 2 -99 -1z m333 -1038 c0 -11 -19 -15 -25 -6 -3 5 1 10 9 10
9 0 16 -2 16 -4z"/>
<path d="M1897 2959 c-15 -9 -16 -13 -6 -25 9 -11 32 -14 91 -13 120 4 127 21
13 34 -27 4 -57 8 -65 10 -8 2 -23 0 -33 -6z"/>
<path d="M1806 2885 c-23 -17 -13 -34 11 -19 19 12 29 34 16 34 -4 0 -17 -7
-27 -15z"/>
<path d="M2425 2870 c-13 -5 -14 -9 -5 -9 8 0 24 4 35 9 13 5 14 9 5 9 -8 0
-24 -4 -35 -9z"/>
<path d="M1883 2803 c9 -2 25 -2 35 0 9 3 1 5 -18 5 -19 0 -27 -2 -17 -5z"/>
<path d="M2160 2806 c0 -2 9 -6 20 -9 11 -3 18 -1 14 4 -5 9 -34 13 -34 5z"/>
<path d="M1728 2793 c-9 -2 -16 -12 -16 -21 1 -9 -2 -27 -6 -38 -5 -18 -2 -22
18 -26 21 -4 26 -1 29 21 7 40 7 71 -1 70 -4 -1 -15 -3 -24 -6z"/>
<path d="M1774 2791 c4 -5 0 -12 -6 -14 -8 -3 -6 -6 5 -6 9 -1 17 3 17 8 0 5
12 12 28 14 21 3 19 4 -11 6 -21 0 -36 -3 -33 -8z"/>
<path d="M1940 2782 c0 -5 10 -14 23 -21 12 -6 14 -9 5 -7 -10 3 -18 1 -18 -3
0 -18 12 -41 22 -41 5 0 6 5 3 10 -3 6 1 13 10 16 9 4 14 13 11 20 -3 8 -1 14
4 14 9 0 15 -30 11 -52 0 -5 4 -8 9 -8 6 0 11 8 11 18 1 9 2 24 3 32 0 8 -3
18 -9 22 -14 11 -85 10 -85 0z"/>
<path d="M1879 2744 l-24 -26 24 4 c14 2 27 13 32 26 11 29 -2 28 -32 -4z"/>
<path d="M1620 2707 c0 -1 9 -28 20 -60 11 -31 21 -64 21 -74 1 -10 5 7 9 37
4 30 10 65 14 78 7 20 4 22 -28 22 -20 0 -36 -1 -36 -3z"/>
<path d="M2216 2652 c-19 -41 -70 -102 -101 -120 -11 -6 -17 -13 -14 -17 22
-21 125 89 144 153 11 36 -11 25 -29 -16z"/>
<path d="M2362 2442 c-10 -7 -10 -11 2 -22 18 -14 50 -6 44 13 -6 15 -29 20
-46 9z"/>
<path d="M2218 2433 c7 -3 16 -2 19 1 4 3 -2 6 -13 5 -11 0 -14 -3 -6 -6z"/>
<path d="M2415 2360 c3 -5 11 -10 16 -10 6 0 7 5 4 10 -3 6 -11 10 -16 10 -6
0 -7 -4 -4 -10z"/>
<path d="M2010 2219 c0 -16 59 -88 82 -100 20 -11 95 -19 193 -22 79 -2 173
22 201 52 13 14 24 29 24 34 0 8 -62 1 -121 -14 -33 -8 -307 -3 -336 6 -7 3
-13 16 -13 30 0 16 -6 25 -15 25 -8 0 -15 -5 -15 -11z"/>
<path d="M2527 2223 c-4 -3 -7 -11 -7 -17 0 -6 5 -5 12 2 6 6 9 14 7 17 -3 3
-9 2 -12 -2z"/>
<path d="M2465 1771 c-11 -4 -36 -14 -55 -23 -38 -17 -157 -38 -220 -38 -22 0
-40 -3 -40 -7 0 -5 22 -20 50 -34 45 -24 53 -25 91 -15 33 9 43 8 46 -1 7 -19
18 -16 63 12 31 20 40 22 40 10 0 -8 4 -15 9 -15 14 0 33 28 28 42 -2 7 4 28
15 46 20 33 16 38 -27 23z"/>
<path d="M1755 1530 c-3 -5 -1 -10 4 -10 6 0 11 5 11 10 0 6 -2 10 -4 10 -3 0
-8 -4 -11 -10z"/>
</g>
</svg>
