<?xml version="1.0" standalone="no"?>
<!DOCTYPE svg PUBLIC "-//W3C//DTD SVG 20010904//EN"
 "http://www.w3.org/TR/2001/REC-SVG-20010904/DTD/svg10.dtd">
<svg version="1.0" xmlns="http://www.w3.org/2000/svg"
 width="460.000000pt" height="460.000000pt" viewBox="0 0 460.000000 460.000000"
 preserveAspectRatio="xMidYMid meet">
<metadata>
Created by potrace 1.15, written by Peter Selinger 2001-2017
</metadata>
<g transform="translate(0.000000,460.000000) scale(0.100000,-0.100000)"
fill="#000000" stroke="none">
<path d="M2252 3819 c-12 -5 -71 -12 -130 -15 -137 -9 -130 -7 -177 -28 -90
-39 -105 -48 -115 -66 -6 -11 -17 -20 -25 -20 -7 0 -20 -6 -27 -14 -8 -7 -28
-21 -45 -29 -50 -26 -173 -183 -173 -221 0 -7 -20 -54 -44 -103 -71 -144 -80
-194 -45 -270 11 -25 18 -52 15 -60 -3 -8 1 -27 9 -42 7 -15 17 -63 21 -105 4
-43 13 -84 20 -91 19 -19 17 -35 -3 -35 -16 0 -10 -14 8 -16 5 -1 11 -3 14 -4
7 -4 23 -7 38 -9 17 -1 37 -43 47 -101 5 -25 11 -54 13 -65 3 -11 9 -36 13
-55 6 -31 5 -33 -7 -19 -8 9 -27 19 -44 22 -16 2 -38 8 -49 12 -14 6 -17 4
-14 -11 2 -13 12 -19 30 -19 15 -1 36 -9 47 -19 11 -10 25 -15 30 -11 10 6 15
-10 14 -42 -1 -7 2 -13 6 -13 4 0 7 -9 8 -20 1 -11 9 -30 18 -42 15 -22 16
-19 10 49 -3 39 -12 90 -20 113 -29 83 -14 200 27 200 17 0 22 -15 21 -57 -1
-7 3 -13 8 -13 5 0 17 -16 26 -35 9 -19 21 -35 27 -36 17 -1 46 -7 116 -23
116 -27 184 -35 192 -22 4 6 11 16 15 23 5 6 21 14 37 17 36 7 71 39 73 67 4
49 24 78 51 76 21 -2 28 -10 37 -42 17 -63 55 -135 70 -135 8 0 19 8 24 18 9
15 12 15 21 2 23 -35 12 -50 -35 -50 -51 0 -97 -24 -93 -49 2 -20 -11 -61 -20
-61 -12 0 -52 31 -52 40 0 4 12 13 28 18 17 7 21 11 10 11 -10 1 -18 5 -18 9
0 20 -52 32 -91 22 -46 -13 -50 -26 -11 -41 19 -8 23 -13 12 -17 -21 -7 -53
-42 -46 -50 4 -3 15 -1 24 5 10 6 33 14 51 18 29 6 33 5 28 -9 -7 -18 3 -20
93 -16 61 2 119 -15 104 -30 -6 -6 -75 -14 -155 -19 -155 -10 -255 -34 -273
-65 -8 -14 -8 -20 2 -23 6 -3 12 -10 12 -17 0 -7 9 -21 20 -31 11 -10 25 -36
32 -57 6 -21 17 -38 25 -38 8 0 12 -3 9 -8 -2 -4 13 -8 34 -8 l38 -1 -25 23
c-34 31 -15 39 60 25 37 -7 76 -7 114 -1 32 6 71 10 87 10 l29 0 -21 -23 c-24
-25 -19 -45 6 -24 13 10 14 9 4 -10 -7 -12 -20 -27 -30 -32 -16 -10 -16 -10 1
-11 11 0 17 -6 15 -16 -2 -10 3 -19 9 -21 16 -6 83 59 83 80 0 9 5 19 10 22 6
3 10 15 10 25 0 10 8 24 18 30 14 9 13 10 -8 4 -22 -6 -23 -5 -11 10 8 9 11
19 8 23 -7 7 31 43 45 43 17 0 8 -76 -12 -98 -11 -12 -20 -28 -20 -37 0 -9
-18 -38 -40 -64 -22 -26 -40 -57 -40 -68 0 -12 -7 -28 -15 -36 -11 -12 -12
-17 -2 -20 8 -4 9 -8 1 -14 -6 -4 -19 -23 -29 -40 -11 -18 -24 -33 -29 -33 -5
0 -30 -10 -55 -22 -56 -27 -152 -29 -180 -4 -10 9 -25 14 -34 11 -8 -4 -18 -2
-22 4 -3 6 -13 11 -22 11 -9 0 -25 8 -35 17 -14 13 -21 14 -30 5 -9 -9 -9 -12
0 -12 7 0 12 -9 12 -20 0 -10 9 -27 19 -37 10 -10 24 -37 30 -60 10 -38 15
-42 51 -48 21 -4 44 -13 51 -21 6 -8 17 -14 24 -14 8 0 27 -11 43 -24 25 -22
35 -24 85 -19 54 6 56 5 63 -21 8 -32 41 -33 58 -1 6 11 17 24 24 28 6 4 12
17 12 27 0 30 25 24 65 -14 33 -32 36 -40 40 -108 4 -78 -13 -133 -43 -141
-16 -4 -16 -5 0 -6 16 -1 116 72 131 96 4 7 12 13 17 13 15 0 50 38 50 53 0 8
10 22 22 33 18 16 20 16 15 2 -4 -11 1 -18 16 -22 16 -4 18 -8 10 -14 -9 -6
-10 -17 -4 -38 7 -25 5 -33 -10 -42 -31 -19 -23 -34 14 -27 57 11 67 16 67 30
0 8 6 12 13 9 8 -3 38 8 69 24 39 21 60 27 72 20 12 -6 16 -5 16 6 0 9 22 21
58 32 31 10 49 20 40 22 -10 2 -18 10 -18 19 0 12 7 14 34 9 20 -4 37 -2 41 4
3 6 11 8 16 5 5 -4 9 -1 9 4 0 6 -4 11 -10 11 -5 0 -10 9 -10 20 0 11 5 20 11
20 5 0 7 -4 4 -10 -4 -6 8 -10 28 -10 32 0 67 -23 50 -32 -4 -3 -2 -3 5 -1 8
1 20 3 28 3 8 0 11 6 8 15 -4 9 0 16 7 16 8 1 -13 7 -46 14 -33 8 -80 21 -105
30 -24 9 -52 14 -62 12 -10 -3 -18 -2 -18 3 0 8 -163 35 -190 31 -50 -7 -83 0
-111 23 -17 14 -37 26 -45 26 -8 0 -22 8 -33 19 -15 15 -20 41 -26 134 l-7
117 41 85 c41 87 65 158 76 231 5 31 13 45 33 55 64 32 77 49 108 145 20 62
26 94 18 94 -12 0 -24 52 -24 113 0 26 4 37 15 37 8 0 15 6 15 13 0 23 -23 37
-58 37 -28 0 -32 3 -23 14 17 20 41 121 41 171 0 24 4 46 10 50 5 3 9 37 9 75
0 38 2 73 4 78 3 4 -4 48 -15 97 -16 69 -30 104 -62 149 -23 32 -50 76 -61 97
-21 41 -154 153 -228 193 -23 12 -54 30 -68 39 -24 16 -111 36 -214 50 -22 3
-50 1 -63 -4z m-46 -498 c-6 -9 40 -21 85 -21 16 0 29 -4 29 -9 0 -5 10 -11
23 -14 78 -19 157 -67 157 -97 0 -11 -7 -35 -16 -54 -19 -38 -16 -43 35 -79
l25 -16 -57 -26 c-46 -20 -57 -29 -57 -49 0 -30 29 -37 119 -25 39 4 70 4 75
-1 18 -18 -5 -24 -82 -23 -68 1 -86 -3 -151 -33 -87 -40 -140 -43 -224 -14
-56 20 -130 26 -174 14 -39 -11 -14 -24 45 -24 53 0 93 -12 81 -24 -7 -7 -289
-9 -296 -3 -3 3 11 13 31 21 20 8 40 25 45 38 8 21 13 22 94 19 87 -3 127 8
127 33 0 9 -26 19 -77 28 -46 8 -77 18 -76 25 4 20 -76 7 -101 -16 -26 -25
-44 -27 -52 -6 -4 8 -12 15 -19 15 -7 0 -15 7 -19 15 -8 22 26 84 47 85 9 0
17 5 17 10 0 6 11 15 23 19 13 5 30 23 36 39 9 20 18 29 27 25 9 -3 30 11 53
36 22 24 51 43 69 47 18 4 32 11 32 16 0 6 7 7 16 4 20 -8 54 10 54 29 0 13
17 21 48 24 7 0 11 -3 8 -8z m-144 -643 c-2 -13 7 -19 36 -24 60 -10 69 -18
52 -49 -25 -46 -66 -67 -141 -73 -72 -5 -182 13 -198 32 -5 6 -12 21 -16 34
-6 22 -4 23 24 19 19 -3 34 0 42 9 6 8 24 14 40 14 16 0 29 5 29 10 0 6 -7 10
-15 10 -16 0 -20 21 -8 34 4 4 42 6 83 4 65 -3 75 -5 72 -20z m631 -25 c10 -6
9 -45 -2 -62 -10 -16 -77 -30 -149 -31 -38 0 -62 6 -87 23 -36 23 -47 57 -19
57 8 0 22 7 31 16 13 12 32 14 117 8 55 -3 104 -8 109 -11z m28 -145 c15 -24
-14 -133 -38 -147 -12 -6 -17 -27 -19 -81 -1 -63 -5 -76 -27 -98 l-26 -25 1
34 c0 19 4 39 8 44 4 6 8 23 8 38 0 20 -5 27 -14 23 -8 -3 -14 -1 -14 5 0 21
-70 79 -97 80 -17 1 -21 3 -10 6 19 5 23 23 5 23 -8 0 -6 6 4 16 13 13 14 22
6 40 -18 38 -4 53 54 57 77 6 150 -1 159 -15z m-285 -261 c8 3 20 0 28 -6 7
-6 15 -8 19 -5 3 3 10 -3 16 -15 14 -24 9 -27 -54 -35 -27 -4 -67 -12 -89 -18
-33 -10 -40 -10 -51 5 -10 14 -14 15 -18 4 -4 -11 -27 -13 -109 -9 -128 5
-146 17 -88 57 33 23 51 28 93 27 29 -1 68 2 87 6 20 5 59 3 93 -4 33 -7 65
-10 73 -7z"/>
<path d="M3716 451 c-3 -5 -10 -53 -16 -107 -6 -55 -17 -125 -25 -157 -8 -32
-15 -88 -15 -123 0 -62 1 -64 25 -64 14 0 25 3 25 8 1 4 2 70 4 147 2 77 7
177 11 223 7 76 4 95 -9 73z"/>
</g>
</svg>
